<svg width="18" height="19" viewBox="0 0 18 19" fill="none" xmlns="http://www.w3.org/2000/svg">
<g id="Icon">
<path id="Vector" d="M15.3018 2.18811H10.9811C10.8468 2.18801 10.7179 2.2411 10.6225 2.33577L1.98465 10.9737C1.79551 11.1637 1.68933 11.421 1.68933 11.6891C1.68933 11.9572 1.79551 12.2145 1.98465 12.4045L6.09793 16.5178C6.28799 16.7069 6.54522 16.8131 6.81336 16.8131C7.08149 16.8131 7.33872 16.7069 7.52879 16.5178L16.1632 7.88342C16.2578 7.7881 16.3109 7.65918 16.3108 7.52483V3.20061C16.3115 3.06776 16.2858 2.9361 16.2354 2.81319C16.185 2.69029 16.1107 2.57857 16.017 2.48446C15.9232 2.39036 15.8117 2.31573 15.689 2.26487C15.5663 2.21401 15.4347 2.18792 15.3018 2.18811V2.18811Z" stroke="#666666" stroke-width="1.5" stroke-linecap="round" stroke-linejoin="round"/>
<path id="Vector_2" d="M13.5001 6.12494C13.2776 6.12494 13.0601 6.05896 12.8751 5.93534C12.6901 5.81173 12.5459 5.63603 12.4608 5.43046C12.3756 5.22489 12.3533 4.99869 12.3967 4.78046C12.4401 4.56223 12.5473 4.36178 12.7046 4.20444C12.862 4.04711 13.0624 3.93996 13.2806 3.89656C13.4989 3.85315 13.7251 3.87543 13.9306 3.96057C14.1362 4.04572 14.3119 4.18992 14.4355 4.37492C14.5591 4.55993 14.6251 4.77744 14.6251 4.99994C14.6251 5.29831 14.5066 5.58446 14.2956 5.79543C14.0846 6.00641 13.7985 6.12494 13.5001 6.12494Z" fill="#666666"/>
</g>
</svg>
