<svg width="24" height="24" viewBox="0 0 24 24" fill="none" xmlns="http://www.w3.org/2000/svg">
<g id="old / ionicons / mail-open">
<path id="Vector" d="M21.0211 7.26665L21.0212 7.26672C21.4579 7.47859 21.826 7.8092 22.0835 8.22068C22.3409 8.63215 22.4771 9.10783 22.4766 9.59319V18.2468C22.4766 19.6811 21.2958 20.8484 19.8436 20.8484H4.15641C2.7042 20.8484 1.52336 19.6811 1.52336 18.2468L1.52336 9.59321L1.52336 9.59319C1.52286 9.10783 1.65913 8.63215 1.91655 8.22068C2.17397 7.8092 2.54211 7.47859 2.97879 7.26672L2.97894 7.26665L11.1618 3.22371C11.1619 3.2237 11.1619 3.22369 11.1619 3.22368C11.4228 3.09574 11.7095 3.02921 12 3.02921C12.2906 3.02921 12.5772 3.09574 12.8381 3.22368C12.8381 3.22369 12.8381 3.2237 12.8382 3.22371L21.0211 7.26665ZM11.82 4.52334L11.82 4.52336L3.75606 8.50727L3.71367 8.52821L3.75607 8.54915L11.6972 12.4712L11.6972 12.4712C11.7532 12.4987 11.8148 12.513 11.8772 12.513C11.9396 12.513 12.0011 12.4987 12.0572 12.4712L12.0572 12.4712L20.1197 8.4868L20.1621 8.46586L20.1197 8.44493L12.18 4.52336L12.18 4.52334C12.124 4.49586 12.0624 4.48157 12 4.48157C11.9376 4.48157 11.876 4.49586 11.82 4.52334Z" fill="#A8C4D3" stroke="#A8C4D3" stroke-width="0.0467096"/>
</g>
</svg>
