<svg width="24" height="24" viewBox="0 0 24 24" fill="none" xmlns="http://www.w3.org/2000/svg">
<g id="old / ionicons / options-outline">
<path id="Vector" d="M17.25 6.00171H21" stroke="#757575" stroke-width="1.49471" stroke-linecap="round" stroke-linejoin="round"/>
<path id="Vector_2" d="M3.00006 6.00171H14.2501" stroke="#757575" stroke-width="1.49471" stroke-linecap="round" stroke-linejoin="round"/>
<path id="Vector_3" d="M17.25 18.0034H21" stroke="#757575" stroke-width="1.49471" stroke-linecap="round" stroke-linejoin="round"/>
<path id="Vector_4" d="M3.00006 18.0034H14.2501" stroke="#757575" stroke-width="1.49471" stroke-linecap="round" stroke-linejoin="round"/>
<path id="Vector_5" d="M9.75006 12.0063H21.0001" stroke="#757575" stroke-width="1.49471" stroke-linecap="round" stroke-linejoin="round"/>
<path id="Vector_6" d="M3.00006 12.0063H6.75006" stroke="#757575" stroke-width="1.49471" stroke-linecap="round" stroke-linejoin="round"/>
<path id="Vector_7" d="M15.7501 7.50342C16.5785 7.50342 17.2501 6.83185 17.2501 6.00342C17.2501 5.17499 16.5785 4.50342 15.7501 4.50342C14.9216 4.50342 14.2501 5.17499 14.2501 6.00342C14.2501 6.83185 14.9216 7.50342 15.7501 7.50342Z" stroke="#757575" stroke-width="1.49471" stroke-linecap="round" stroke-linejoin="round"/>
<path id="Vector_8" d="M8.25012 13.5043C9.07855 13.5043 9.75012 12.8327 9.75012 12.0043C9.75012 11.1758 9.07855 10.5043 8.25012 10.5043C7.42169 10.5043 6.75012 11.1758 6.75012 12.0043C6.75012 12.8327 7.42169 13.5043 8.25012 13.5043Z" stroke="#757575" stroke-width="1.49471" stroke-linecap="round" stroke-linejoin="round"/>
<path id="Vector_9" d="M15.7501 19.5012C16.5785 19.5012 17.2501 18.8296 17.2501 18.0012C17.2501 17.1728 16.5785 16.5012 15.7501 16.5012C14.9216 16.5012 14.2501 17.1728 14.2501 18.0012C14.2501 18.8296 14.9216 19.5012 15.7501 19.5012Z" stroke="#757575" stroke-width="1.49471" stroke-linecap="round" stroke-linejoin="round"/>
</g>
</svg>
