<svg width="24" height="24" viewBox="0 0 24 24" fill="none" xmlns="http://www.w3.org/2000/svg">
<g id="old / ionicons / mail-unread">
<path id="Vector" d="M23.2265 6.00631V6.00625C23.2273 5.43279 23.0625 4.87129 22.7518 4.38928C22.4411 3.90726 21.9978 3.52526 21.4752 3.2892C20.9525 3.05314 20.3729 2.97307 19.8058 3.05862C19.2388 3.14417 18.7085 3.3917 18.2788 3.77144L18.2788 3.77146C18.0477 3.97527 17.8494 4.21344 17.6909 4.47759V4.48796L17.6875 4.48596C17.6626 4.52758 17.6389 4.57021 17.6156 4.6131L17.6046 4.63562L17.6042 4.63632L17.6042 4.63631C17.5848 4.67288 17.5667 4.71 17.549 4.74777L17.5489 4.74796L17.5489 4.74796C17.5435 4.75927 17.5385 4.77064 17.5333 4.78241L17.5332 4.78263L17.5332 4.78263C17.5178 4.81662 17.503 4.85098 17.489 4.88574L17.4889 4.8861L17.4889 4.8861L23.2265 6.00631ZM23.2265 6.00631C23.2273 6.7314 22.9626 7.43169 22.4824 7.97497C22.2774 8.20472 22.0382 8.40152 21.7733 8.55848V8.55657L21.7611 8.56401C21.7197 8.58935 21.6772 8.61244 21.6341 8.63584L21.6116 8.64687L21.6116 8.64686L21.6109 8.64723C21.5744 8.66667 21.5372 8.68477 21.4995 8.70249L21.4646 8.71829L23.2265 6.00631ZM17.3277 5.31394L17.3504 5.31953C17.3518 5.31382 17.3532 5.3081 17.3546 5.30237C17.3607 5.27716 17.3669 5.25174 17.3741 5.22656L17.3741 5.22657L17.3742 5.22599C17.3788 5.20817 17.3838 5.19073 17.3894 5.17269L17.3894 5.17269L17.3895 5.17232C17.3988 5.14023 17.4085 5.10817 17.4188 5.0766C17.4188 5.07655 17.4188 5.0765 17.4188 5.07644L17.4355 5.02732C17.4355 5.02728 17.4355 5.02724 17.4355 5.0272C17.4471 4.99422 17.4592 4.96168 17.4718 4.92909L17.2803 5.76636C17.2823 5.73864 17.2843 5.71153 17.2872 5.68432L17.2639 5.68191M17.3277 5.31394L17.3504 5.31948C17.3457 5.33874 17.341 5.3577 17.3369 5.37661L17.3141 5.3716M17.3277 5.31394L17.3277 5.31398C17.323 5.33319 17.3183 5.35239 17.3141 5.3716M17.3277 5.31394C17.3291 5.30834 17.3304 5.30268 17.3318 5.29699C17.338 5.27176 17.3443 5.24582 17.3516 5.22019C17.3563 5.20191 17.3614 5.1841 17.3671 5.16582C17.3764 5.13347 17.3863 5.10113 17.3966 5.06926L17.255 5.79066M17.3141 5.3716L17.337 5.37631C17.3311 5.40459 17.3257 5.43324 17.3206 5.46014C17.32 5.46336 17.3193 5.46655 17.3187 5.46972C17.315 5.48945 17.3113 5.50887 17.3081 5.52825L17.285 5.52441M17.3141 5.3716C17.3082 5.40006 17.3027 5.4289 17.2976 5.45577C17.297 5.45899 17.2964 5.46219 17.2958 5.46535L17.2958 5.46543C17.292 5.48509 17.2883 5.50475 17.285 5.52441M17.285 5.52441L17.3081 5.52804C17.303 5.56045 17.2988 5.59338 17.2946 5.62672L17.2714 5.62379M17.285 5.52441C17.2799 5.55722 17.2756 5.59051 17.2714 5.62379M17.2714 5.62379L17.2946 5.62661C17.2934 5.63673 17.2922 5.6456 17.291 5.65437C17.2897 5.66406 17.2884 5.67364 17.2871 5.68467L17.2639 5.68191M17.2714 5.62379C17.2703 5.6328 17.2691 5.6418 17.2679 5.65086C17.2665 5.66113 17.2652 5.67145 17.2639 5.68191M17.2639 5.68191C17.2611 5.70949 17.259 5.73708 17.257 5.76487C17.2563 5.77344 17.2557 5.78204 17.255 5.79066M17.255 5.79066C17.255 5.80079 17.254 5.81091 17.253 5.82104C17.2523 5.82779 17.2516 5.83454 17.2513 5.84129L17.2746 5.84251C17.2718 5.89569 17.2699 5.94869 17.2699 6.00254C17.2699 6.04962 17.27 6.09547 17.2736 6.13837L17.2738 6.14035H17.2737V6.16969C17.2762 6.21313 17.2794 6.25657 17.2834 6.30002L17.2862 6.32214L17.2862 6.32258L17.2862 6.32258C17.2904 6.36225 17.2951 6.40119 17.3011 6.43955L17.3016 6.44316H17.3013C17.3013 6.45184 17.3016 6.45562 17.3029 6.45864L17.305 6.46388L17.3044 6.46399C17.3108 6.50614 17.3187 6.54794 17.3271 6.58999L17.3281 6.59457H17.3276C17.3276 6.5967 17.328 6.59942 17.3292 6.60401C17.3294 6.60487 17.3297 6.6059 17.33 6.60705C17.331 6.61088 17.3324 6.61607 17.3333 6.62086L17.3103 6.62504L17.3332 6.62025C17.3416 6.66023 17.3509 6.70018 17.3611 6.73965L17.3626 6.74551H17.3618V6.74552V6.74554V6.74556V6.74558V6.7456V6.74562V6.74564V6.74566V6.74568V6.7457V6.74572V6.74574V6.74575V6.74577V6.74579V6.74581V6.74583V6.74585V6.74587V6.74589V6.74591V6.74593V6.74594V6.74596V6.74598V6.746V6.74602V6.74604V6.74606V6.74608V6.7461V6.74612V6.74613V6.74615V6.74617V6.74619V6.74621V6.74623V6.74625V6.74627V6.74628V6.7463V6.74632V6.74634V6.74636V6.74638V6.7464V6.74642V6.74644V6.74645V6.74647V6.74649V6.74651V6.74653V6.74655V6.74657V6.74658V6.7466V6.74662V6.74664V6.74666V6.74668V6.7467V6.74671V6.74673V6.74675V6.74677V6.74679V6.74681V6.74683V6.74684V6.74686V6.74688V6.7469V6.74692V6.74694V6.74696V6.74697V6.74699V6.74701V6.74703V6.74705V6.74707V6.74708V6.7471V6.74712V6.74714V6.74716V6.74718V6.7472V6.74721V6.74723V6.74725V6.74727V6.74729V6.7473V6.74732V6.74734V6.74736V6.74738V6.7474V6.74741V6.74743V6.74745V6.74747V6.74749V6.74751V6.74752V6.74754V6.74756V6.74758V6.7476V6.74761V6.74763V6.74765V6.74767V6.74769V6.74771V6.74772V6.74774V6.74776V6.74778V6.7478V6.74781V6.74783V6.74785V6.74787V6.74789V6.7479V6.74792V6.74794V6.74796V6.74798V6.74799V6.74801V6.74803V6.74805V6.74807V6.74808V6.7481V6.74812V6.74814V6.74816V6.74817V6.74819V6.74821V6.74823V6.74824V6.74826V6.74828V6.7483V6.74832V6.74833V6.74835V6.74837V6.74839V6.74841V6.74842V6.74844V6.74846V6.74848V6.74849V6.74851V6.74853V6.74855V6.74856V6.74858V6.7486V6.74862V6.74864V6.74865V6.74867V6.74869V6.74871V6.74872V6.74874V6.74876V6.74878V6.7488V6.74881V6.74883V6.74885V6.74887V6.74888V6.7489V6.74892V6.74894V6.74895V6.74897V6.74899V6.74901V6.74902V6.74904V6.74906V6.74908V6.74909V6.74911V6.74913V6.74915V6.74916V6.74918V6.7492V6.74922V6.74923V6.74925V6.74927V6.74929V6.7493V6.74932V6.74934V6.74936V6.74937V6.74939V6.74941V6.74943V6.74944V6.74946V6.74948V6.7495V6.74951V6.74953V6.74955V6.74956V6.74958V6.7496V6.74962V6.74963V6.74965V6.74967V6.74969V6.7497V6.74972V6.74974V6.74976V6.74977V6.74979V6.74981V6.74982V6.74984V6.74986V6.74988V6.74989V6.74991V6.74993V6.74994V6.74996V6.74998V6.75V6.75001V6.75003V6.75005V6.75007V6.75008V6.7501V6.75012V6.75013V6.75015V6.75017V6.75019V6.7502V6.75022V6.75024V6.75025V6.75027V6.75029V6.75031V6.75032V6.75034V6.75036V6.75037V6.75039V6.75041V6.75043V6.75044V6.75046V6.75048V6.75049V6.75051V6.75053V6.75054V6.75056V6.75058V6.7506V6.75061V6.75063V6.75065V6.75066V6.75068V6.7507V6.75071V6.75073V6.75075V6.75077V6.75078V6.7508V6.75082V6.75083V6.75085V6.75087V6.75088V6.7509V6.75092V6.75094V6.75095V6.75097V6.75099V6.751V6.75102V6.75104V6.75105V6.75107V6.75109V6.7511V6.75112V6.75114V6.75116V6.75117V6.75119V6.75121V6.75122V6.75124V6.75126V6.75127V6.75129V6.75131V6.75132V6.75134V6.75136V6.75137V6.75139V6.75141V6.75142V6.75143C17.3723 6.79175 17.3837 6.83124 17.3959 6.87077L17.3959 6.8708L17.4057 6.9025C17.4183 6.94208 17.4313 6.98069 17.4453 7.01929L17.4455 7.01984L17.4455 7.01984C17.4481 7.02764 17.4511 7.03554 17.4544 7.04407L17.4545 7.04423C17.4671 7.07734 17.4801 7.11041 17.4936 7.14297L17.4939 7.14359L17.4939 7.1436C17.4975 7.15322 17.5011 7.16213 17.5051 7.17092L17.5052 7.17127C17.5211 7.20811 17.5373 7.2448 17.5545 7.28096C17.5545 7.28102 17.5545 7.28107 17.5546 7.28112L17.5698 7.31209C17.5862 7.34494 17.6025 7.37745 17.6196 7.40944C17.8624 7.86066 18.217 8.24199 18.6494 8.51689L18.6495 8.51692C18.7629 8.58941 18.8813 8.65389 19.0038 8.70989L19.0039 8.70992L19.022 8.71828C19.1044 8.75548 19.1886 8.78896 19.2745 8.81872C19.2745 8.81873 19.2745 8.81874 19.2745 8.81875L19.3184 8.83353L19.3189 8.83368L19.3887 8.85555L17.255 5.79066ZM17.255 5.79066L17.2783 5.79245C17.2783 5.79217 17.2783 5.79188 17.2784 5.79159L17.2784 5.79066H17.255ZM17.5278 4.73785C17.5456 4.69988 17.5639 4.66238 17.5836 4.62535L17.5949 4.60238L17.5278 4.73785ZM17.5278 4.73785C17.5222 4.74956 17.5171 4.76128 17.5119 4.77299M17.5278 4.73785L17.5119 4.77299M20.0688 8.97547L20.0689 8.97547L20.1085 8.97778C20.1323 8.97779 20.1552 8.97874 20.1776 8.97967L20.1777 8.97967C20.2004 8.98061 20.2223 8.98152 20.2447 8.98152C20.2993 8.98152 20.3517 8.98151 20.4039 8.97693L20.4042 8.9769L20.4548 8.97316C20.4548 8.97315 20.4548 8.97315 20.4549 8.97315C20.4636 8.97248 20.4723 8.97184 20.4809 8.9712C20.5085 8.96915 20.5355 8.96715 20.5626 8.96433C20.5627 8.96433 20.5628 8.96432 20.5629 8.96431L20.6209 8.95687L20.621 8.95687L20.6265 8.95616C20.6574 8.95218 20.6884 8.9482 20.7189 8.94341C20.719 8.9434 20.7191 8.94339 20.7192 8.94337L20.7777 8.93269L20.7778 8.93266C20.8095 8.92707 20.8414 8.92106 20.8704 8.91461C20.8705 8.9146 20.8705 8.91459 20.8706 8.91458L20.9279 8.90105L20.928 8.90105C20.96 8.89352 20.9912 8.88617 21.0204 8.87749L21.0212 8.87724L21.0213 8.87726C21.0391 8.87269 21.0565 8.86764 21.0746 8.86209L21.0749 8.86198C21.107 8.85268 21.1391 8.84292 21.1706 8.83272C21.1707 8.8327 21.1707 8.83268 21.1708 8.83266L21.2199 8.81598C21.2529 8.80436 21.2855 8.79227 21.3181 8.7797C21.3181 8.77968 21.3181 8.77967 21.3182 8.77965L21.3615 8.76241C21.3963 8.74851 21.4306 8.73366 21.4646 8.7183L20.0688 8.97547ZM20.0688 8.97547C20.0345 8.97361 20.0001 8.97082 19.9658 8.96801L19.9304 8.96479C19.9303 8.96478 19.9303 8.96478 19.9302 8.96477C19.888 8.96013 19.8457 8.95456 19.8039 8.94851C19.8038 8.9485 19.8037 8.94849 19.8037 8.94848L19.7604 8.94158L19.76 8.9415L19.6751 8.9262L19.6746 8.92612L19.6215 8.91549L19.5411 8.89688L19.4518 8.87366C19.4518 8.87363 19.4517 8.87361 19.4516 8.87359M20.0688 8.97547L19.4516 8.87359M19.4516 8.87359C19.4458 8.87194 19.44 8.87035 19.4344 8.86877C19.4188 8.86444 19.4038 8.86027 19.3887 8.85556L19.4516 8.87359ZM17.5119 4.77299L17.5119 4.77301L17.5119 4.77299Z" fill="#3DC2FF" stroke="#3DC2FF" stroke-width="0.0467096"/>
<path id="Vector_2" d="M11.5253 13.3635L11.5397 13.3451L11.5254 13.3635C11.6611 13.469 11.8281 13.5263 12 13.5263C12.1719 13.5263 12.3389 13.469 12.4746 13.3635L12.4603 13.3451L12.4747 13.3635L17.4081 9.52648C18.1162 10.0991 18.981 10.4444 19.8891 10.5168C20.7899 10.5886 21.6912 10.3885 22.4766 9.94289V17.628C22.4759 18.3178 22.2016 18.9791 21.7138 19.4669C21.2261 19.9546 20.5648 20.229 19.875 20.2297H4.12502C3.43525 20.229 2.77393 19.9546 2.28618 19.4669C1.79843 18.9791 1.52409 18.3178 1.52335 17.628L1.52335 6.37806C1.5241 5.68829 1.79844 5.02698 2.28618 4.53923C2.77393 4.05149 3.43525 3.77714 4.12502 3.77641L16.3102 3.77641C15.9139 4.47484 15.7109 5.26653 15.7224 6.06994C15.734 6.87984 15.9632 7.67158 16.3857 8.36231L12 11.7733L5.72491 6.89279C5.72486 6.89275 5.72482 6.89272 5.72478 6.89269C5.6448 6.8287 5.55292 6.78125 5.45445 6.75307C5.35593 6.72487 5.25279 6.71654 5.15102 6.72855C5.04925 6.74056 4.95089 6.77268 4.86164 6.82303C4.77239 6.87339 4.69404 6.94098 4.63114 7.02188C4.56824 7.10278 4.52205 7.19537 4.49524 7.29428C4.46843 7.39318 4.46155 7.49643 4.47499 7.59802C4.48844 7.69961 4.52194 7.79751 4.57354 7.88604C4.62513 7.97453 4.69377 8.05189 4.7755 8.11363C4.77553 8.11366 4.77557 8.11369 4.77561 8.11372L11.5253 13.3635Z" fill="#3DC2FF" stroke="#3DC2FF" stroke-width="0.0467096"/>
</g>
</svg>
