<svg width="24" height="24" viewBox="0 0 24 24" fill="none" xmlns="http://www.w3.org/2000/svg">
<g id="old / ionicons / settings">
<path id="Vector" d="M14.2266 11.9969C14.2266 13.2267 13.2297 14.2236 12 14.2236C10.7703 14.2236 9.77335 13.2267 9.77335 11.9969C9.77335 10.7672 10.7703 9.7703 12 9.7703C13.2297 9.7703 14.2266 10.7672 14.2266 11.9969Z" fill="#A8C4D3" stroke="#A8C4D3" stroke-width="0.0467096"/>
<g id="Vector_2">
<mask id="path-2-inside-1_24_16223" fill="white">
<path d="M22.0496 14.0618L22.0275 14.044L20.5481 12.8838C20.4545 12.8097 20.3797 12.7144 20.33 12.6058C20.2803 12.4972 20.2571 12.3783 20.2622 12.259V11.7171C20.2575 11.5985 20.281 11.4805 20.3308 11.3728C20.3806 11.265 20.4553 11.1707 20.5486 11.0974L22.0275 9.93677L22.0496 9.91895C22.2776 9.72895 22.4307 9.46402 22.4814 9.17152C22.532 8.87902 22.477 8.57804 22.3261 8.32239L20.3241 4.85833C20.3218 4.85506 20.3197 4.85161 20.318 4.84802C20.1663 4.59591 19.9311 4.40489 19.6532 4.30812C19.3754 4.21136 19.0724 4.21497 18.7969 4.31833L18.7805 4.32442L17.0414 5.02427C16.9317 5.06865 16.8129 5.08631 16.695 5.0758C16.5771 5.06528 16.4633 5.0269 16.3631 4.9638C16.2094 4.86692 16.0531 4.77536 15.8944 4.68911C15.7915 4.6333 15.7031 4.55407 15.6364 4.45783C15.5697 4.36159 15.5266 4.25102 15.5105 4.13505L15.2485 2.27927L15.2428 2.24552C15.1858 1.95808 15.0315 1.69904 14.806 1.51192C14.5805 1.32481 14.2974 1.22102 14.0044 1.21802H9.99565C9.69849 1.21897 9.4112 1.32476 9.18439 1.51675C8.95758 1.70875 8.80581 1.97463 8.7558 2.26755L8.75158 2.2938L8.49049 4.15333C8.47447 4.26897 8.43168 4.37928 8.36552 4.47547C8.29936 4.57166 8.21166 4.65107 8.1094 4.70739C7.94908 4.79364 7.79252 4.88505 7.64065 4.9802C7.54064 5.04292 7.42719 5.08101 7.30961 5.09136C7.19202 5.10171 7.07366 5.08402 6.96424 5.03974L5.22377 4.33661L5.20737 4.33005C4.93149 4.22658 4.62807 4.22311 4.34989 4.32023C4.07172 4.41735 3.8364 4.60892 3.68487 4.86161L3.67877 4.87192L1.67393 8.33833C1.52282 8.59424 1.46767 8.89555 1.51833 9.18839C1.569 9.48124 1.72218 9.74651 1.95049 9.93677L1.97252 9.95458L3.4519 11.1147C3.54558 11.1888 3.62035 11.2841 3.67006 11.3927C3.71976 11.5014 3.74299 11.6202 3.73784 11.7396V12.2815C3.74253 12.4 3.71902 12.518 3.66923 12.6258C3.61944 12.7335 3.54479 12.8279 3.45143 12.9011L1.97252 14.0618L1.95049 14.0796C1.72241 14.2696 1.56935 14.5345 1.51868 14.827C1.46802 15.1195 1.52304 15.4205 1.67393 15.6761L3.67596 19.1402C3.67826 19.1435 3.6803 19.1469 3.68205 19.1505C3.83375 19.4026 4.06896 19.5936 4.34682 19.6904C4.62469 19.7872 4.92767 19.7836 5.20315 19.6802L5.21955 19.6741L6.95721 18.9743C7.06697 18.9299 7.18571 18.9122 7.30364 18.9227C7.42157 18.9332 7.53531 18.9716 7.63549 19.0347C7.78924 19.1319 7.94549 19.2235 8.10424 19.3094C8.20717 19.3652 8.29554 19.4445 8.36222 19.5407C8.42891 19.6369 8.47204 19.7475 8.48815 19.8635L8.74877 21.7193L8.7544 21.753C8.81154 22.0409 8.9662 22.3003 9.1923 22.4875C9.41841 22.6747 9.70213 22.7782 9.99565 22.7805H14.0044C14.3016 22.7796 14.5888 22.6738 14.8157 22.4818C15.0425 22.2898 15.1942 22.0239 15.2442 21.731L15.2485 21.7047L15.5096 19.8452C15.5258 19.7293 15.569 19.6189 15.6355 19.5227C15.7021 19.4265 15.7903 19.3472 15.893 19.2911C16.0533 19.2049 16.2099 19.1135 16.3617 19.0183C16.4617 18.9556 16.5752 18.9175 16.6928 18.9072C16.8104 18.8968 16.9287 18.9145 17.0381 18.9588L18.7786 19.6596L18.795 19.6661C19.0709 19.7698 19.3744 19.7734 19.6526 19.6762C19.9308 19.5791 20.1661 19.3874 20.3175 19.1346C20.3194 19.131 20.3214 19.1276 20.3236 19.1243L22.3256 15.6607C22.477 15.4048 22.5324 15.1034 22.4818 14.8104C22.4312 14.5174 22.278 14.2521 22.0496 14.0618ZM15.7458 12.1755C15.7117 12.9014 15.4674 13.6018 15.0426 14.1914C14.6178 14.781 14.0308 15.2345 13.3531 15.4967C12.6754 15.7589 11.936 15.8186 11.225 15.6684C10.514 15.5183 9.86196 15.1647 9.34813 14.6509C8.83431 14.137 8.48087 13.4849 8.33079 12.7738C8.18071 12.0628 8.24045 11.3235 8.50276 10.6458C8.76506 9.96807 9.21863 9.38118 9.8083 8.95647C10.398 8.53176 11.0983 8.28753 11.8242 8.25349C12.3454 8.23054 12.8656 8.31629 13.3518 8.50528C13.838 8.69427 14.2796 8.98236 14.6484 9.35124C15.0172 9.72012 15.3053 10.1617 15.4942 10.6479C15.6831 11.1342 15.7688 11.6544 15.7458 12.1755Z"/>
</mask>
<path d="M22.0496 14.0618L22.0275 14.044L20.5481 12.8838C20.4545 12.8097 20.3797 12.7144 20.33 12.6058C20.2803 12.4972 20.2571 12.3783 20.2622 12.259V11.7171C20.2575 11.5985 20.281 11.4805 20.3308 11.3728C20.3806 11.265 20.4553 11.1707 20.5486 11.0974L22.0275 9.93677L22.0496 9.91895C22.2776 9.72895 22.4307 9.46402 22.4814 9.17152C22.532 8.87902 22.477 8.57804 22.3261 8.32239L20.3241 4.85833C20.3218 4.85506 20.3197 4.85161 20.318 4.84802C20.1663 4.59591 19.9311 4.40489 19.6532 4.30812C19.3754 4.21136 19.0724 4.21497 18.7969 4.31833L18.7805 4.32442L17.0414 5.02427C16.9317 5.06865 16.8129 5.08631 16.695 5.0758C16.5771 5.06528 16.4633 5.0269 16.3631 4.9638C16.2094 4.86692 16.0531 4.77536 15.8944 4.68911C15.7915 4.6333 15.7031 4.55407 15.6364 4.45783C15.5697 4.36159 15.5266 4.25102 15.5105 4.13505L15.2485 2.27927L15.2428 2.24552C15.1858 1.95808 15.0315 1.69904 14.806 1.51192C14.5805 1.32481 14.2974 1.22102 14.0044 1.21802H9.99565C9.69849 1.21897 9.4112 1.32476 9.18439 1.51675C8.95758 1.70875 8.80581 1.97463 8.7558 2.26755L8.75158 2.2938L8.49049 4.15333C8.47447 4.26897 8.43168 4.37928 8.36552 4.47547C8.29936 4.57166 8.21166 4.65107 8.1094 4.70739C7.94908 4.79364 7.79252 4.88505 7.64065 4.9802C7.54064 5.04292 7.42719 5.08101 7.30961 5.09136C7.19202 5.10171 7.07366 5.08402 6.96424 5.03974L5.22377 4.33661L5.20737 4.33005C4.93149 4.22658 4.62807 4.22311 4.34989 4.32023C4.07172 4.41735 3.8364 4.60892 3.68487 4.86161L3.67877 4.87192L1.67393 8.33833C1.52282 8.59424 1.46767 8.89555 1.51833 9.18839C1.569 9.48124 1.72218 9.74651 1.95049 9.93677L1.97252 9.95458L3.4519 11.1147C3.54558 11.1888 3.62035 11.2841 3.67006 11.3927C3.71976 11.5014 3.74299 11.6202 3.73784 11.7396V12.2815C3.74253 12.4 3.71902 12.518 3.66923 12.6258C3.61944 12.7335 3.54479 12.8279 3.45143 12.9011L1.97252 14.0618L1.95049 14.0796C1.72241 14.2696 1.56935 14.5345 1.51868 14.827C1.46802 15.1195 1.52304 15.4205 1.67393 15.6761L3.67596 19.1402C3.67826 19.1435 3.6803 19.1469 3.68205 19.1505C3.83375 19.4026 4.06896 19.5936 4.34682 19.6904C4.62469 19.7872 4.92767 19.7836 5.20315 19.6802L5.21955 19.6741L6.95721 18.9743C7.06697 18.9299 7.18571 18.9122 7.30364 18.9227C7.42157 18.9332 7.53531 18.9716 7.63549 19.0347C7.78924 19.1319 7.94549 19.2235 8.10424 19.3094C8.20717 19.3652 8.29554 19.4445 8.36222 19.5407C8.42891 19.6369 8.47204 19.7475 8.48815 19.8635L8.74877 21.7193L8.7544 21.753C8.81154 22.0409 8.9662 22.3003 9.1923 22.4875C9.41841 22.6747 9.70213 22.7782 9.99565 22.7805H14.0044C14.3016 22.7796 14.5888 22.6738 14.8157 22.4818C15.0425 22.2898 15.1942 22.0239 15.2442 21.731L15.2485 21.7047L15.5096 19.8452C15.5258 19.7293 15.569 19.6189 15.6355 19.5227C15.7021 19.4265 15.7903 19.3472 15.893 19.2911C16.0533 19.2049 16.2099 19.1135 16.3617 19.0183C16.4617 18.9556 16.5752 18.9175 16.6928 18.9072C16.8104 18.8968 16.9287 18.9145 17.0381 18.9588L18.7786 19.6596L18.795 19.6661C19.0709 19.7698 19.3744 19.7734 19.6526 19.6762C19.9308 19.5791 20.1661 19.3874 20.3175 19.1346C20.3194 19.131 20.3214 19.1276 20.3236 19.1243L22.3256 15.6607C22.477 15.4048 22.5324 15.1034 22.4818 14.8104C22.4312 14.5174 22.278 14.2521 22.0496 14.0618ZM15.7458 12.1755C15.7117 12.9014 15.4674 13.6018 15.0426 14.1914C14.6178 14.781 14.0308 15.2345 13.3531 15.4967C12.6754 15.7589 11.936 15.8186 11.225 15.6684C10.514 15.5183 9.86196 15.1647 9.34813 14.6509C8.83431 14.137 8.48087 13.4849 8.33079 12.7738C8.18071 12.0628 8.24045 11.3235 8.50276 10.6458C8.76506 9.96807 9.21863 9.38118 9.8083 8.95647C10.398 8.53176 11.0983 8.28753 11.8242 8.25349C12.3454 8.23054 12.8656 8.31629 13.3518 8.50528C13.838 8.69427 14.2796 8.98236 14.6484 9.35124C15.0172 9.72012 15.3053 10.1617 15.4942 10.6479C15.6831 11.1342 15.7688 11.6544 15.7458 12.1755Z" fill="#A8C4D3" stroke="#A8C4D3" stroke-width="0.0934192" mask="url(#path-2-inside-1_24_16223)"/>
</g>
</g>
</svg>
